<svg xmlns="http://www.w3.org/2000/svg" width="111" height="67" viewBox="0 0 111 67" fill="none"><path d="M77.6339 7.99401C77.3546 8.47046 77.5144 9.08312 77.9909 9.36242C78.4674 9.64172 79.08 9.48188 79.3593 9.00543L77.6339 7.99401ZM105.499 30.5001L106.361 31.0062L105.499 30.5001ZM0.892917 57.7042C0.453293 58.0385 0.367892 58.6658 0.70218 59.1055L6.14966 66.2696C6.48394 66.7092 7.11132 66.7946 7.55095 66.4603C7.99058 66.1261 8.07598 65.4987 7.74169 65.0591L2.89948 58.6909L9.26761 53.8487C9.70724 53.5144 9.79264 52.8871 9.45835 52.4474C9.12407 52.0078 8.49668 51.9224 8.05706 52.2567L0.892917 57.7042ZM79.3593 9.00543C81.2998 5.69512 84.7124 3.75341 88.6187 3.12755C92.531 2.50074 96.86 3.21257 100.473 5.13223C104.078 7.04718 106.919 10.1327 107.984 14.2347C109.048 18.3342 108.38 23.6138 104.636 29.9941L106.361 31.0062C110.295 24.302 111.151 18.4768 109.92 13.7323C108.689 8.99026 105.414 5.49251 101.412 3.36601C97.4178 1.2442 92.6488 0.456369 88.3023 1.15274C83.95 1.85006 79.9433 4.05439 77.6339 7.99401L79.3593 9.00543ZM104.636 29.9941C97.1868 42.6914 79.755 50.7321 59.8175 55.0081C39.9467 59.2698 17.9015 59.7237 1.63307 57.5093L1.36332 59.4911C17.8581 61.7363 40.1366 61.2746 60.2369 56.9636C80.2706 52.667 98.4575 44.4778 106.361 31.0062L104.636 29.9941Z" fill="#6DBBDA" fill-opacity="0.8"></path></svg>